<?xml version="1.0" encoding="UTF-8"?>
<!DOCTYPE svg PUBLIC "-//W3C//DTD SVG 1.1//EN" "http://www.w3.org/Graphics/SVG/1.1/DTD/svg11.dtd" [<!ENTITY st0 "fill:#AAB2AB;"><!ENTITY st1 "fill:#FFF;">]>
<svg version="1.1" xmlns="http://www.w3.org/2000/svg" x="0px" y="0px" width="88px" height="31px" viewBox="0 0 88 31"><title>Creative Commons “Attribution-Share Alike” license icon</title><path style="fill:#AAB2AB;" d="M2.499,0.352L85.626,0.5c1.161,0,2.198-0.173,2.198,2.333l-0.102,27.552H0.401V2.73C0.401,1.495,0.52,0.352,2.499,0.352z"/><path style="fill:#FFF;" d="M25.316,14.449c0.003,5.557-4.471,10.065-9.993,10.069c-5.522,0.003-10.001-4.5-10.005-10.057c0-0.004,0-0.008,0-0.012C5.315,8.891,9.789,4.383,15.312,4.38c5.522-0.004,10.001,4.5,10.005,10.057C25.316,14.44,25.316,14.444,25.316,14.449z M46.464,3.306c4.349,0,7.875,3.548,7.875,7.925c0,4.377-3.526,7.926-7.875,7.926c-4.35,0-7.875-3.548-7.875-7.926C38.588,6.854,42.114,3.306,46.464,3.306z M75.096,11.057c0.003,4.314-3.47,7.814-7.757,7.818c-4.286,0.003-7.765-3.492-7.769-7.806c0-0.004,0-0.008,0-0.012c-0.002-4.314,3.471-7.814,7.758-7.817s7.765,3.492,7.768,7.806C75.096,11.05,75.096,11.053,75.096,11.057z"/><path d="M23.446,6.252c2.217,2.232,3.326,4.964,3.326,8.197c0,3.233-1.089,5.936-3.269,8.11c-2.313,2.289-5.046,3.434-8.2,3.434c-3.116,0-5.802-1.135-8.057-3.405c-2.256-2.271-3.383-4.982-3.383-8.138S4.99,8.561,7.246,6.252c2.198-2.232,4.884-3.348,8.057-3.348C18.515,2.904,21.229,4.02,23.446,6.252z M8.739,7.753c-1.875,1.905-2.812,4.138-2.812,6.698c0,2.561,0.928,4.773,2.783,6.64c1.855,1.867,4.064,2.801,6.627,2.801s4.791-0.942,6.684-2.829c1.797-1.752,2.697-3.955,2.697-6.611c0-2.636-0.914-4.874-2.74-6.712c-1.826-1.838-4.04-2.757-6.641-2.757S10.536,5.906,8.739,7.753z M13.672,13.325c-0.287-0.628-0.715-0.942-1.287-0.942c-1.011,0-1.516,0.685-1.516,2.054c0,1.37,0.505,2.055,1.516,2.055c0.667,0,1.145-0.333,1.431-1.002l1.401,0.751c-0.668,1.194-1.67,1.792-3.006,1.792c-1.03,0-1.856-0.317-2.476-0.954c-0.621-0.636-0.931-1.512-0.931-2.629c0-1.099,0.32-1.97,0.959-2.616c0.639-0.646,1.436-0.968,2.39-0.968c1.413,0,2.424,0.56,3.035,1.679L13.672,13.325z M20.265,13.325c-0.287-0.628-0.707-0.942-1.261-0.942c-1.031,0-1.547,0.685-1.547,2.054c0,1.37,0.516,2.055,1.547,2.055c0.669,0,1.137-0.333,1.404-1.002l1.433,0.751c-0.667,1.194-1.667,1.792-3.001,1.792c-1.029,0-1.853-0.317-2.473-0.954c-0.619-0.636-0.928-1.512-0.928-2.629c0-1.099,0.314-1.97,0.943-2.616c0.628-0.646,1.428-0.968,2.4-0.968c1.41,0,2.42,0.56,3.029,1.679L20.265,13.325z M86.353,0H1.647C0.739,0,0,0.744,0,1.658v28.967C0,30.832,0.167,31,0.372,31h87.256C87.833,31,88,30.832,88,30.625V1.658C88,0.744,87.261,0,86.353,0z M1.647,0.749h84.705c0.498,0,0.903,0.408,0.903,0.909c0,0,0,11.676,0,20.109H26.714c-2.219,4.038-6.494,6.779-11.401,6.779c-4.908,0-9.183-2.738-11.4-6.779H0.744c0-8.434,0-20.109,0-20.109C0.744,1.157,1.149,0.749,1.647,0.749z M67.277,2.5c-2.355,0-4.349,0.827-5.98,2.481c-1.675,1.712-2.512,3.737-2.512,6.077s0.837,4.351,2.512,6.034c1.674,1.683,3.668,2.524,5.98,2.524c2.342,0,4.371-0.849,6.089-2.546c1.616-1.611,2.427-3.616,2.427-6.012c0-2.396-0.824-4.422-2.471-6.077C71.677,3.327,69.662,2.5,67.277,2.5z M67.299,4.04c1.93,0,3.569,0.685,4.918,2.054c1.361,1.355,2.043,3.01,2.043,4.964c0,1.968-0.666,3.602-2.001,4.9c-1.405,1.397-3.058,2.096-4.96,2.096c-1.901,0-3.541-0.691-4.917-2.074c-1.376-1.384-2.064-3.024-2.064-4.921c0-1.897,0.695-3.552,2.086-4.964C63.736,4.724,65.369,4.04,67.299,4.04z M63.508,9.849c0.34-2.153,1.846-3.304,3.733-3.304c2.716,0,4.369,1.982,4.369,4.626c0,2.58-1.76,4.584-4.411,4.584c-1.824,0-3.457-1.13-3.755-3.347h2.143c0.063,1.151,0.806,1.556,1.866,1.556c1.209,0,1.994-1.13,1.994-2.857c0-1.812-0.679-2.771-1.951-2.771c-0.934,0-1.739,0.341-1.909,1.513l0.623-0.003l-1.687,1.697l-1.686-1.697L63.508,9.849z M48.743,8.938c0-0.306-0.246-0.553-0.55-0.553h-3.478c-0.303,0-0.55,0.247-0.55,0.553v3.5h0.971v4.145h2.636v-4.145h0.971V8.938L48.743,8.938z M46.455,5.53c0.656,0,1.189,0.536,1.189,1.197s-0.533,1.197-1.189,1.197c-0.657,0-1.189-0.536-1.189-1.197S45.798,5.53,46.455,5.53z M46.443,2.5c-2.355,0-4.349,0.827-5.981,2.481c-1.675,1.711-2.512,3.737-2.512,6.076s0.837,4.351,2.512,6.034c1.674,1.683,3.668,2.524,5.981,2.524c2.342,0,4.371-0.849,6.088-2.547c1.619-1.611,2.428-3.615,2.428-6.012s-0.823-4.421-2.47-6.076C50.844,3.326,48.828,2.5,46.443,2.5z M46.465,4.039c1.93,0,3.569,0.685,4.917,2.054c1.363,1.355,2.044,3.01,2.044,4.963c0,1.968-0.666,3.602-2.001,4.9c-1.405,1.398-3.058,2.096-4.96,2.096c-1.901,0-3.541-0.691-4.917-2.075c-1.377-1.383-2.065-3.023-2.065-4.921c0-1.896,0.695-3.551,2.086-4.963C42.903,4.724,44.535,4.039,46.465,4.039z"/><path style="fill:#FFF;" d="M69.277,24.171l1.816,4.888h-1.109l-0.367-1.089h-1.816l-0.381,1.089h-1.074l1.836-4.888H69.277z M69.339,27.168l-0.612-1.793h-0.014l-0.633,1.793H69.339z M63.26,27.85c0.059,0.115,0.137,0.207,0.234,0.277c0.098,0.071,0.211,0.124,0.342,0.158c0.133,0.034,0.268,0.051,0.408,0.051c0.095,0,0.197-0.008,0.306-0.023s0.21-0.047,0.306-0.093c0.094-0.046,0.174-0.108,0.236-0.188c0.064-0.08,0.096-0.181,0.096-0.305c0-0.132-0.042-0.238-0.126-0.321c-0.083-0.083-0.194-0.15-0.329-0.206c-0.136-0.055-0.29-0.102-0.461-0.143c-0.173-0.042-0.348-0.088-0.523-0.138c-0.182-0.046-0.358-0.102-0.531-0.167c-0.171-0.066-0.325-0.152-0.461-0.258c-0.137-0.104-0.246-0.235-0.33-0.393c-0.083-0.158-0.125-0.349-0.125-0.572c0-0.252,0.053-0.469,0.16-0.654c0.105-0.184,0.246-0.338,0.418-0.462c0.172-0.123,0.366-0.214,0.584-0.274c0.217-0.059,0.436-0.088,0.652-0.088c0.254,0,0.497,0.028,0.73,0.086c0.232,0.057,0.44,0.149,0.621,0.277c0.182,0.127,0.326,0.291,0.432,0.49c0.107,0.198,0.16,0.439,0.16,0.723h-1.036c-0.009-0.146-0.04-0.268-0.091-0.363c-0.053-0.096-0.121-0.172-0.207-0.227s-0.184-0.094-0.295-0.115c-0.11-0.023-0.23-0.035-0.361-0.035c-0.086,0-0.172,0.01-0.258,0.027c-0.086,0.019-0.163,0.051-0.232,0.096c-0.07,0.047-0.129,0.104-0.174,0.172s-0.067,0.155-0.067,0.26c0,0.096,0.019,0.174,0.054,0.232c0.037,0.061,0.109,0.115,0.215,0.165s0.254,0.101,0.441,0.151c0.188,0.049,0.434,0.113,0.736,0.191c0.092,0.018,0.217,0.051,0.377,0.1c0.161,0.047,0.32,0.123,0.479,0.229c0.159,0.105,0.296,0.246,0.412,0.422c0.115,0.176,0.173,0.4,0.173,0.674c0,0.225-0.044,0.432-0.13,0.623c-0.086,0.192-0.214,0.357-0.384,0.496c-0.171,0.141-0.381,0.248-0.632,0.326c-0.252,0.078-0.544,0.116-0.874,0.116c-0.268,0-0.527-0.033-0.779-0.1c-0.251-0.065-0.474-0.171-0.667-0.312c-0.192-0.143-0.346-0.323-0.459-0.543c-0.113-0.219-0.168-0.479-0.163-0.78h1.036C63.172,27.597,63.201,27.736,63.26,27.85z M45.973,24.171h1.198l1.138,1.931l1.13-1.931h1.19l-1.803,3.012v1.876h-1.07v-1.903L45.973,24.171z M43.998,24.171c0.231,0,0.442,0.021,0.633,0.062c0.191,0.041,0.354,0.108,0.491,0.201c0.136,0.094,0.241,0.219,0.316,0.373c0.075,0.155,0.112,0.348,0.112,0.575c0,0.247-0.055,0.451-0.167,0.616c-0.11,0.164-0.276,0.298-0.493,0.402c0.3,0.088,0.523,0.239,0.672,0.456c0.148,0.218,0.223,0.479,0.223,0.784c0,0.246-0.049,0.46-0.144,0.641c-0.095,0.18-0.224,0.327-0.386,0.441c-0.161,0.114-0.346,0.199-0.552,0.254c-0.207,0.055-0.419,0.082-0.638,0.082h-2.358v-4.888H43.998L43.998,24.171z M43.861,26.147c0.191,0,0.347-0.046,0.47-0.136c0.123-0.092,0.185-0.239,0.185-0.444c0-0.114-0.021-0.208-0.062-0.28c-0.041-0.072-0.095-0.129-0.164-0.17s-0.146-0.07-0.235-0.086c-0.089-0.016-0.181-0.023-0.276-0.023h-1v1.14H43.861z M43.923,28.222c0.105,0,0.205-0.01,0.3-0.03c0.095-0.021,0.18-0.055,0.252-0.104c0.073-0.047,0.13-0.112,0.174-0.194s0.065-0.187,0.065-0.315c0-0.25-0.071-0.43-0.212-0.536c-0.141-0.107-0.328-0.161-0.559-0.161h-1.166v1.341H43.923z"/></svg>